<?xml version="1.0" standalone="no"?>
<!DOCTYPE svg PUBLIC "-//W3C//DTD SVG 20010904//EN"
 "http://www.w3.org/TR/2001/REC-SVG-20010904/DTD/svg10.dtd">
<svg version="1.0" xmlns="http://www.w3.org/2000/svg"
 width="1024.000000pt" height="1024.000000pt" viewBox="0 0 1024.000000 1024.000000"
 preserveAspectRatio="xMidYMid meet">

<g transform="translate(0.000000,1024.000000) scale(0.100000,-0.100000)"
fill="#000000" stroke="none">
<path d="M4835 7979 c-823 -84 -1569 -520 -2054 -1197 -267 -374 -435 -801
-508 -1287 -25 -169 -25 -581 0 -750 81 -541 278 -1002 607 -1415 46 -58 135
-158 198 -222 l114 -117 72 -16 c108 -26 351 -31 458 -11 188 36 335 102 498
225 192 143 357 339 527 623 190 317 350 671 571 1264 l57 154 708 0 707 0 0
55 c0 37 -4 55 -12 56 -7 1 -20 3 -28 4 -8 1 -311 3 -672 4 l-657 1 9 28 c4
15 38 107 74 205 261 695 465 1062 740 1325 135 130 261 202 451 260 177 55
153 60 290 -70 557 -530 855 -1221 855 -1979 0 -653 -231 -1273 -660 -1774
-43 -49 -87 -99 -99 -109 -30 -27 -26 -34 16 -38 20 -2 38 -9 41 -16 3 -10
-10 -13 -55 -11 l-60 2 -111 -98 c-429 -379 -952 -606 -1536 -665 -151 -16
-512 -7 -651 15 -361 57 -681 171 -985 349 l-55 33 -125 -6 -125 -6 100 -67
c638 -424 1404 -571 2175 -417 509 102 1018 374 1409 753 l103 101 -33 5 c-33
5 -34 6 -37 58 -2 42 0 52 12 52 12 0 16 -11 16 -40 0 -33 3 -40 20 -40 17 0
20 7 20 40 0 29 4 40 15 40 11 0 15 -11 15 -42 0 -32 3 -39 10 -28 5 8 10 36
10 63 0 35 4 47 15 47 9 0 15 -9 15 -25 0 -14 4 -25 8 -25 15 0 199 252 268
367 422 701 525 1536 287 2323 -130 431 -372 833 -712 1183 -89 92 -100 99
-212 128 -220 57 -511 27 -714 -74 -436 -217 -754 -669 -1131 -1612 l-92 -230
-421 -3 -421 -2 0 -60 0 -60 395 0 c217 0 395 -2 395 -5 0 -11 -224 -605 -283
-750 -309 -757 -588 -1132 -1002 -1344 -75 -39 -248 -101 -279 -101 -21 0
-266 239 -358 350 -262 314 -447 679 -547 1079 -38 149 -48 207 -66 366 -82
726 143 1474 613 2035 464 554 1112 898 1826 971 151 15 525 7 659 -15 337
-54 664 -165 930 -317 l92 -52 125 1 c69 1 127 2 130 2 19 2 -275 180 -392
238 -286 142 -536 222 -856 273 -146 24 -554 34 -707 18z"/>
</g>
</svg>
